<mxfile host="app.diagrams.net" modified="2020-10-14T15:59:47.296Z" agent="5.0 (X11)" etag="S950IqsGaduG7EPBrL24" version="13.8.0" type="github">
  <diagram id="6a731a19-8d31-9384-78a2-239565b7b9f0" name="Page-1">
    <mxGraphModel dx="711" dy="385" grid="1" gridSize="10" guides="1" tooltips="1" connect="1" arrows="1" fold="1" page="1" pageScale="1" pageWidth="1169" pageHeight="827" background="#ffffff" math="0" shadow="0">
      <root>
        <mxCell id="0" />
        <mxCell id="1" parent="0" />
        <mxCell id="Njp4Hclcxz6N-JDUY36Z-1782" value="" style="edgeStyle=orthogonalEdgeStyle;rounded=0;orthogonalLoop=1;jettySize=auto;html=1;" parent="1" source="Njp4Hclcxz6N-JDUY36Z-1780" target="Njp4Hclcxz6N-JDUY36Z-1781" edge="1">
          <mxGeometry relative="1" as="geometry" />
        </mxCell>
        <mxCell id="Njp4Hclcxz6N-JDUY36Z-1780" value="&lt;div&gt;Cultural Form&lt;/div&gt;" style="ellipse;whiteSpace=wrap;html=1;strokeWidth=2;fillColor=#B9E0A5;strokeColor=#97D077;" parent="1" vertex="1">
          <mxGeometry x="520" y="334" width="120" height="80" as="geometry" />
        </mxCell>
        <mxCell id="1OadNxzD4AQAjjE9QP95-4" value="" style="edgeStyle=orthogonalEdgeStyle;rounded=0;orthogonalLoop=1;jettySize=auto;html=1;" edge="1" parent="1" source="Njp4Hclcxz6N-JDUY36Z-1781" target="1OadNxzD4AQAjjE9QP95-3">
          <mxGeometry relative="1" as="geometry" />
        </mxCell>
        <mxCell id="1OadNxzD4AQAjjE9QP95-6" value="" style="edgeStyle=orthogonalEdgeStyle;rounded=0;orthogonalLoop=1;jettySize=auto;html=1;" edge="1" parent="1" source="Njp4Hclcxz6N-JDUY36Z-1781" target="1OadNxzD4AQAjjE9QP95-5">
          <mxGeometry relative="1" as="geometry" />
        </mxCell>
        <mxCell id="1OadNxzD4AQAjjE9QP95-8" value="" style="edgeStyle=orthogonalEdgeStyle;rounded=0;orthogonalLoop=1;jettySize=auto;html=1;" edge="1" parent="1" source="Njp4Hclcxz6N-JDUY36Z-1781" target="1OadNxzD4AQAjjE9QP95-7">
          <mxGeometry relative="1" as="geometry" />
        </mxCell>
        <mxCell id="Njp4Hclcxz6N-JDUY36Z-1781" value="Collaborative Media" style="whiteSpace=wrap;html=1;strokeColor=#97D077;strokeWidth=2;fillColor=#B9E0A5;" parent="1" vertex="1">
          <mxGeometry x="520" y="184" width="120" height="60" as="geometry" />
        </mxCell>
        <mxCell id="1OadNxzD4AQAjjE9QP95-3" value="Digital Media" style="whiteSpace=wrap;html=1;strokeColor=#97D077;strokeWidth=2;fillColor=#B9E0A5;" vertex="1" parent="1">
          <mxGeometry x="360" y="100" width="120" height="60" as="geometry" />
        </mxCell>
        <mxCell id="1OadNxzD4AQAjjE9QP95-5" value="Social Media" style="whiteSpace=wrap;html=1;strokeColor=#97D077;strokeWidth=2;fillColor=#B9E0A5;" vertex="1" parent="1">
          <mxGeometry x="520" y="44" width="120" height="60" as="geometry" />
        </mxCell>
        <mxCell id="1OadNxzD4AQAjjE9QP95-7" value="New Media" style="whiteSpace=wrap;html=1;strokeColor=#97D077;strokeWidth=2;fillColor=#B9E0A5;" vertex="1" parent="1">
          <mxGeometry x="680" y="104" width="120" height="60" as="geometry" />
        </mxCell>
      </root>
    </mxGraphModel>
  </diagram>
</mxfile>
